<?xml version="1.0" standalone="no"?>
<!DOCTYPE svg PUBLIC "-//W3C//DTD SVG 20010904//EN"
 "http://www.w3.org/TR/2001/REC-SVG-20010904/DTD/svg10.dtd">
<svg version="1.0" xmlns="http://www.w3.org/2000/svg"
 width="3000.000000pt" height="3889.000000pt" viewBox="0 0 3000.000000 3889.000000"
 preserveAspectRatio="xMidYMid meet">

<g transform="translate(0.000000,3889.000000) scale(0.100000,-0.100000)"
fill="#000000" stroke="none">
<path d="M0 19445 l0 -19445 15000 0 15000 0 0 19445 0 19445 -15000 0 -15000
0 0 -19445z m28320 18277 c122 -42 214 -97 301 -179 122 -115 203 -264 235
-430 21 -112 21 -26333 0 -26445 -63 -325 -309 -572 -633 -634 -113 -21
-26333 -21 -26446 0 -165 32 -292 100 -418 226 -90 89 -146 180 -191 310 l-33
95 0 13225 0 13225 33 95 c18 52 52 127 74 165 48 81 167 204 253 260 69 45
209 101 287 114 31 5 5653 8 13248 7 l13195 -1 95 -33z m-24174 -30803 c301
-29 580 -96 850 -204 790 -317 1403 -935 1717 -1730 87 -221 140 -421 184
-695 28 -180 26 -683 -5 -875 -71 -450 -228 -864 -466 -1225 -359 -544 -851
-943 -1448 -1176 -243 -95 -494 -157 -764 -189 -169 -21 -501 -23 -664 -6
-589 64 -1118 277 -1590 641 -123 95 -416 388 -510 510 -372 485 -585 1021
-641 1613 -15 168 -7 574 16 717 57 363 151 661 304 962 465 918 1367 1541
2393 1652 152 17 477 20 624 5z m5888 -1804 c166 -25 434 -103 470 -136 6 -6
-84 -286 -99 -306 0 -2 -44 13 -96 31 -238 85 -444 122 -634 113 -66 -3 -143
-12 -172 -20 -136 -38 -238 -113 -288 -214 -29 -55 -30 -64 -30 -188 0 -120 2
-134 27 -187 69 -147 212 -239 598 -385 200 -75 410 -180 500 -250 134 -104
225 -243 256 -393 24 -116 15 -330 -19 -435 -93 -284 -331 -463 -707 -531
-128 -24 -466 -24 -636 -1 -136 19 -281 53 -369 88 l-60 24 -3 174 c-2 163 -1
173 15 166 186 -75 468 -140 670 -154 380 -26 625 64 726 268 31 63 32 70 32
191 0 116 -2 129 -28 185 -46 99 -139 181 -292 257 -76 39 -143 66 -365 153
-266 104 -458 222 -556 343 -109 133 -156 279 -158 482 -1 156 10 210 64 325
105 220 357 375 671 415 98 12 359 4 483 -15z m2541 15 c61 -6 158 -19 217
-30 158 -30 395 -116 386 -140 -15 -45 -135 -289 -142 -290 -5 0 -47 15 -95
34 -213 85 -412 122 -611 113 -159 -8 -268 -34 -395 -96 -266 -130 -440 -381
-512 -738 -26 -126 -25 -519 0 -648 72 -362 231 -597 492 -725 162 -79 242
-95 480 -94 217 0 301 10 523 65 68 16 130 33 138 36 12 5 14 -16 12 -152 l-3
-158 -40 -14 c-88 -31 -226 -64 -335 -79 -159 -23 -500 -24 -630 -1 -279 48
-478 145 -651 317 -262 259 -389 630 -389 1134 0 457 125 822 370 1080 282
297 694 431 1185 386z m2727 -1435 c301 -775 552 -1422 557 -1437 l10 -28
-187 0 -187 0 -171 443 -172 442 -569 3 -569 2 -170 -442 -170 -443 -183 -3
c-145 -2 -182 0 -178 10 110 288 1110 2855 1114 2861 2 4 77 6 166 5 l161 -3
548 -1410z m1392 1383 c7 -13 261 -405 563 -873 302 -467 639 -990 748 -1162
110 -172 204 -312 208 -313 5 0 6 53 3 118 -3 64 -9 597 -12 1185 l-6 1067
169 -2 168 -3 0 -1430 0 -1430 -210 -3 -210 -2 -765 1186 c-421 652 -769 1188
-773 1191 -5 3 -9 3 -11 2 -1 -2 4 -89 11 -194 9 -130 15 -507 19 -1187 l6
-998 -171 0 -171 0 0 1428 c0 786 3 1432 7 1435 3 4 98 7 209 7 200 0 204 0
218 -22z m4196 19 c0 -8 880 -2341 885 -2345 3 -3 8 -3 11 0 3 4 207 532 453
1175 l448 1168 267 3 266 2 0 -1435 0 -1435 -181 0 -181 0 5 1128 c3 620 10
1183 15 1252 10 122 8 147 -6 123 -4 -6 -221 -572 -482 -1257 l-475 -1246
-148 2 -149 3 -470 1253 c-259 688 -476 1252 -481 1252 -6 0 -7 -25 -3 -62 18
-178 26 -596 26 -1475 l0 -973 -165 0 -165 0 0 1435 0 1435 265 0 c146 0 265
-1 265 -3z m4710 -157 l0 -160 -620 0 -620 0 0 -445 0 -445 583 -2 582 -3 0
-155 0 -155 -582 -3 -583 -2 0 -510 0 -510 620 0 620 0 0 -160 0 -160 -800 0
-800 0 0 1435 0 1435 800 0 800 0 0 -160z"/>
<path d="M3935 35046 c-37 -17 -80 -62 -94 -99 -8 -20 -11 -928 -11 -3013 0
-2512 2 -2990 14 -3017 16 -39 61 -82 99 -96 20 -8 928 -11 3013 -11 2512 0
2990 2 3017 14 39 16 82 61 96 99 15 40 15 5984 0 6024 -14 38 -57 83 -96 99
-48 21 -5993 20 -6038 0z m5195 -891 c65 -33 60 139 60 -2220 0 -1899 -2
-2149 -15 -2175 -33 -65 139 -60 -2220 -60 -2359 0 -2187 -5 -2220 60 -13 26
-15 270 -13 2189 3 2143 3 2159 23 2181 11 12 29 26 40 31 11 4 987 8 2168 8
1901 1 2151 -1 2177 -14z"/>
<path d="M5742 33269 c-44 -13 -108 -79 -121 -126 -17 -58 -15 -2362 1 -2417
19 -61 75 -112 140 -126 39 -8 368 -10 1223 -8 l1170 3 41 23 c53 31 91 91 99
156 3 28 5 571 3 1206 l-3 1155 -24 42 c-27 46 -60 74 -110 91 -43 15 -2368
15 -2419 1z"/>
<path d="M13085 35046 c-119 -38 -217 -122 -272 -234 -38 -75 -38 -77 -38
-196 0 -116 1 -124 32 -187 110 -225 375 -319 599 -213 170 81 278 286 247
470 -29 168 -148 306 -306 356 -69 21 -201 23 -262 4z"/>
<path d="M17555 35046 c-261 -83 -393 -382 -275 -623 87 -175 283 -277 471
-245 192 33 338 180 371 372 36 211 -98 427 -305 492 -69 21 -201 23 -262 4z"/>
<path d="M20025 35046 c-37 -17 -80 -62 -94 -99 -8 -20 -11 -928 -11 -3013 0
-2512 2 -2990 14 -3017 16 -39 61 -82 99 -96 20 -8 928 -11 3013 -11 2512 0
2990 2 3017 14 39 16 82 61 96 99 8 20 11 930 11 3018 0 2554 -2 2994 -14
3017 -16 31 -61 74 -93 91 -35 18 -5998 15 -6038 -3z m5222 -909 l28 -27 3
-2161 c2 -1918 0 -2163 -13 -2189 -33 -65 139 -60 -2220 -60 -2359 0 -2187 -5
-2220 60 -13 26 -15 276 -15 2175 0 1896 2 2149 15 2175 33 64 -141 59 2232
57 l2163 -2 27 -28z"/>
<path d="M21830 33267 c-55 -18 -106 -76 -120 -139 -8 -39 -10 -368 -8 -1223
l3 -1170 25 -43 c15 -27 42 -54 70 -70 l45 -27 1200 0 1200 0 45 27 c28 16 55
43 70 70 l25 43 3 1170 c2 835 0 1185 -8 1222 -14 64 -67 123 -126 141 -56 16
-2371 16 -2424 -1z"/>
<path d="M12210 34156 c-176 -50 -301 -187 -332 -365 -36 -209 94 -421 303
-491 54 -19 80 -21 161 -18 88 4 106 9 172 42 271 134 333 494 122 710 -109
112 -284 162 -426 122z"/>
<path d="M16678 34155 c-82 -22 -141 -57 -203 -119 -240 -240 -141 -633 185
-739 l72 -23 -54 -12 c-212 -48 -368 -282 -331 -497 34 -196 182 -345 376
-377 213 -35 423 100 493 316 13 39 23 63 24 53 0 -33 38 -125 69 -171 66 -96
150 -157 256 -187 62 -17 62 -19 -18 -40 -27 -6 -74 -29 -106 -49 -239 -155
-274 -489 -72 -691 140 -139 356 -168 534 -72 94 52 193 185 212 286 9 48 21
47 29 -1 15 -100 123 -240 224 -291 262 -134 582 16 643 300 15 70 6 191 -19
256 -44 116 -153 221 -267 257 -33 10 -67 21 -75 24 -8 2 5 10 30 17 109 29
225 114 277 203 85 144 82 339 -7 474 -96 144 -280 228 -441 199 -167 -29
-308 -149 -354 -301 -9 -30 -19 -62 -22 -70 -3 -8 -11 9 -19 39 -45 172 -192
305 -368 332 -211 33 -424 -102 -491 -312 l-21 -67 -22 69 c-12 38 -35 89 -51
113 -64 92 -180 174 -274 191 -27 5 -35 10 -25 16 7 5 22 9 33 9 11 0 48 13
83 30 86 40 173 129 215 217 31 65 32 74 32 188 0 116 -1 123 -33 188 -94 192
-316 297 -514 242z m1471 -1450 c27 -109 115 -216 223 -270 38 -19 85 -37 104
-41 42 -8 37 -19 -13 -29 -140 -26 -296 -186 -319 -327 -4 -21 -10 -38 -14
-38 -4 0 -11 17 -15 38 -12 68 -65 159 -124 215 -64 61 -109 87 -196 112 l-60
18 54 14 c160 40 303 188 328 336 7 46 15 39 32 -28z"/>
<path d="M11341 33269 c-112 -22 -243 -113 -298 -207 -106 -181 -75 -414 75
-554 102 -96 250 -143 374 -120 220 41 378 226 378 442 -1 212 -158 400 -369
440 -62 11 -98 11 -160 -1z"/>
<path d="M14020 33269 c-74 -14 -171 -68 -231 -128 -254 -256 -112 -686 249
-753 211 -39 441 111 498 326 29 110 10 248 -49 348 -57 98 -186 185 -306 208
-62 12 -98 11 -161 -1z"/>
<path d="M12188 32361 c-80 -26 -135 -61 -194 -123 -162 -172 -162 -430 1
-606 57 -62 122 -103 195 -122 25 -7 52 -14 60 -17 8 -3 -9 -11 -37 -19 -177
-46 -304 -185 -336 -367 -31 -183 74 -383 247 -467 220 -107 493 -9 598 215
117 250 -25 548 -293 619 -30 8 -47 16 -39 18 136 41 198 75 260 146 184 208
134 538 -101 679 -104 62 -249 80 -361 44z"/>
<path d="M14883 32365 c-119 -32 -218 -112 -276 -223 -68 -130 -71 -263 -8
-397 51 -110 162 -207 268 -234 79 -21 80 -22 24 -37 -173 -45 -304 -190 -333
-368 -13 -76 -1 -164 31 -238 55 -128 190 -240 318 -264 l37 -7 -73 -24 c-153
-49 -266 -168 -306 -321 l-12 -47 -18 63 c-36 125 -123 227 -245 286 -62 29
-71 31 -185 31 -116 0 -123 -1 -188 -33 -121 -60 -224 -188 -243 -304 -7 -41
-24 -52 -24 -15 -1 34 -42 128 -81 181 -46 65 -135 130 -215 156 -55 18 -82
22 -162 18 -82 -3 -107 -8 -162 -34 -95 -45 -172 -120 -217 -212 -38 -75 -38
-77 -38 -196 0 -116 1 -124 32 -187 59 -120 192 -227 305 -245 48 -8 49 -20 1
-28 -116 -19 -245 -121 -305 -243 -32 -65 -33 -72 -33 -188 0 -114 2 -123 31
-185 77 -161 231 -260 402 -260 130 1 213 34 309 123 74 70 119 152 136 251
36 214 -111 445 -318 497 -68 17 -74 25 -25 33 59 9 155 60 210 112 54 51 116
160 126 222 8 49 19 47 27 -6 11 -67 64 -157 126 -214 181 -168 437 -168 611
-2 61 58 130 174 130 218 0 43 17 49 23 9 10 -63 67 -164 124 -221 55 -55 151
-108 216 -118 48 -8 47 -20 -3 -28 -163 -26 -312 -188 -342 -371 -31 -183 80
-383 259 -468 64 -30 74 -32 183 -32 109 0 119 2 183 32 179 85 290 285 259
468 -28 172 -147 313 -302 360 -30 9 -62 19 -70 22 -8 3 9 11 39 19 130 34
232 117 291 238 81 164 55 350 -67 486 -62 69 -117 105 -205 134 -40 14 -65
25 -55 25 10 1 42 10 71 20 200 70 331 285 298 487 -29 178 -160 323 -333 368
-30 8 -47 16 -39 19 8 3 35 10 60 17 202 55 346 280 312 487 -22 133 -113 268
-220 326 -100 55 -232 71 -339 42z"/>
<path d="M16681 31474 c-177 -48 -303 -186 -334 -369 -36 -213 110 -436 325
-495 l60 -16 -63 -18 c-218 -60 -358 -278 -321 -497 16 -92 69 -194 132 -253
55 -51 151 -103 209 -112 52 -8 46 -18 -23 -33 -30 -7 -81 -29 -113 -50 -250
-162 -284 -498 -70 -698 96 -89 179 -122 308 -123 173 0 325 98 403 260 29 62
31 71 31 185 0 116 -1 123 -33 188 -60 122 -189 224 -304 243 -49 8 -48 20 0
28 64 10 163 66 219 124 56 58 97 131 117 209 l13 48 7 -40 c22 -119 123 -248
237 -304 136 -67 276 -65 410 5 122 64 207 185 232 329 22 129 -28 280 -125
375 -100 99 -193 134 -336 128 -83 -3 -107 -8 -164 -35 -120 -56 -201 -150
-244 -282 l-21 -64 -12 48 c-39 155 -170 287 -325 326 l-49 12 55 17 c132 41
234 128 291 247 30 65 32 74 32 188 0 117 -1 122 -34 188 -97 193 -311 295
-510 241z"/>
<path d="M11311 29684 c-160 -43 -288 -176 -322 -335 -15 -71 -6 -191 20 -259
47 -122 157 -223 284 -262 l70 -21 -54 -17 c-80 -25 -136 -56 -191 -108 -150
-140 -181 -373 -75 -554 52 -89 168 -174 277 -203 25 -7 38 -15 30 -17 -8 -3
-40 -13 -71 -22 -117 -34 -241 -157 -275 -274 -9 -31 -19 -64 -22 -72 -2 -8
-10 5 -17 30 -29 109 -114 225 -203 277 -107 63 -246 80 -364 43 -146 -45
-249 -152 -299 -310 l-17 -55 -17 64 c-76 271 -381 399 -639 270 -98 -49 -206
-190 -222 -291 -8 -49 -20 -49 -28 0 -16 101 -123 240 -226 292 -257 131 -571
-9 -641 -286 l-13 -49 -16 55 c-84 281 -383 411 -640 280 -161 -83 -264 -288
-231 -465 30 -166 161 -316 308 -354 79 -21 80 -22 24 -37 -176 -46 -303 -187
-334 -369 -37 -217 115 -441 340 -499 l48 -13 -40 -7 c-150 -28 -298 -171
-339 -327 -8 -30 -16 -47 -19 -39 -3 8 -13 40 -22 70 -35 114 -115 204 -234
263 -63 31 -70 32 -186 32 -115 0 -123 -1 -185 -32 -119 -59 -212 -163 -239
-270 -21 -79 -23 -80 -36 -30 -40 148 -151 269 -292 318 -78 26 -203 26 -285
-2 -76 -25 -132 -63 -191 -129 -157 -174 -149 -435 18 -605 56 -58 151 -110
217 -121 45 -8 42 -19 -8 -29 -66 -12 -148 -58 -205 -115 -61 -60 -92 -113
-119 -199 l-17 -54 -22 71 c-79 260 -381 385 -629 261 -67 -33 -158 -123 -191
-187 -88 -173 -57 -382 78 -518 68 -69 123 -99 241 -131 8 -2 -15 -14 -50 -26
-79 -27 -157 -75 -204 -127 -44 -49 -93 -145 -102 -199 -8 -51 -20 -52 -28 -3
-10 67 -72 177 -127 226 -66 59 -158 104 -243 118 -183 30 -376 -73 -463 -250
-37 -75 -38 -78 -38 -192 0 -114 1 -117 38 -192 87 -177 280 -280 463 -250 85
14 177 59 243 118 55 49 117 159 127 226 8 50 20 48 28 -4 10 -63 73 -173 126
-221 58 -52 131 -92 201 -111 52 -13 53 -14 24 -21 -178 -40 -305 -161 -350
-330 -39 -152 0 -299 113 -417 151 -159 394 -181 579 -54 70 48 138 143 164
228 l22 71 17 -54 c27 -86 58 -139 119 -199 57 -57 139 -103 205 -115 50 -10
53 -21 8 -29 -63 -10 -163 -66 -219 -123 -165 -168 -172 -430 -16 -603 62 -69
119 -106 201 -132 l69 -22 -70 -23 c-38 -13 -89 -37 -112 -53 -91 -63 -173
-180 -190 -273 -5 -27 -10 -35 -16 -25 -5 7 -9 22 -9 33 0 11 -13 48 -30 83
-40 86 -129 173 -217 215 -65 31 -74 32 -188 32 -116 0 -123 -1 -188 -33 -273
-135 -340 -482 -136 -706 96 -106 258 -162 395 -139 169 29 316 160 360 321
l18 64 16 -60 c42 -154 165 -275 321 -316 30 -8 47 -16 39 -19 -8 -3 -40 -13
-70 -22 -200 -61 -337 -282 -302 -485 40 -223 223 -380 442 -380 170 0 321 94
399 248 63 126 64 255 3 387 -52 110 -163 207 -269 234 -79 21 -80 22 -26 37
161 42 286 166 326 325 l14 54 18 -60 c25 -87 51 -132 112 -196 65 -69 152
-114 250 -131 213 -36 438 106 493 312 7 25 14 52 17 60 3 8 11 -9 19 -37 42
-163 164 -285 327 -327 54 -15 53 -16 -26 -37 -104 -26 -211 -119 -267 -228
-87 -173 -51 -381 89 -514 92 -88 188 -127 312 -127 202 0 381 140 430 336
l13 49 16 -55 c24 -78 52 -129 103 -186 133 -147 356 -186 537 -94 103 52 210
191 226 292 8 49 20 49 28 0 16 -104 126 -244 229 -294 113 -55 255 -62 367
-19 270 104 368 453 192 683 -133 173 -370 226 -564 127 -101 -51 -209 -191
-224 -291 -8 -48 -20 -49 -29 0 -19 104 -123 240 -223 291 -251 128 -550 3
-637 -266 l-22 -67 -12 52 c-34 138 -154 265 -291 307 -30 9 -62 19 -70 22 -8
3 9 11 39 19 270 71 410 368 292 620 -55 118 -191 228 -308 250 l-36 7 54 17
c162 50 270 158 319 318 l17 55 12 -49 c32 -125 128 -240 251 -298 61 -29 72
-31 185 -31 115 0 123 1 186 32 120 59 227 192 245 305 8 48 20 49 28 1 19
-116 121 -245 243 -305 65 -32 72 -33 188 -33 114 0 123 2 185 31 162 78 260
230 260 403 -1 129 -34 212 -123 308 -200 213 -537 180 -697 -69 -20 -31 -43
-78 -49 -105 -21 -79 -23 -80 -35 -28 -18 74 -72 169 -126 219 -55 51 -151
103 -209 112 -49 8 -46 19 7 27 67 11 157 64 215 127 172 185 166 453 -12 624
-84 79 -167 117 -277 124 -221 13 -412 -123 -465 -334 l-13 -49 -16 55 c-48
158 -153 266 -305 312 l-70 22 48 12 c146 37 269 150 319 292 28 78 28 206 0
284 -50 142 -173 255 -319 292 l-48 12 70 22 c153 46 268 166 306 318 l13 49
16 -55 c65 -215 244 -341 464 -328 311 20 504 351 370 634 -54 114 -189 223
-296 241 -53 8 -56 19 -7 27 58 9 154 61 209 112 54 50 108 145 126 219 12 52
14 51 35 -28 6 -27 29 -74 49 -105 160 -249 497 -282 697 -69 89 96 122 179
123 308 0 173 -98 325 -260 403 -62 29 -71 31 -185 31 -116 0 -123 -1 -188
-33 -122 -60 -224 -189 -243 -304 -8 -49 -20 -48 -28 0 -10 65 -66 163 -125
220 -57 55 -149 105 -216 118 l-40 7 48 13 c228 59 377 281 339 504 -31 179
-158 318 -333 364 -30 8 -47 16 -39 19 8 3 35 10 60 17 70 19 119 48 181 107
59 56 112 147 124 216 9 48 21 47 29 -1 15 -100 123 -240 224 -291 148 -75
331 -62 469 33 70 48 138 143 164 228 l22 71 17 -54 c48 -153 151 -262 290
-304 30 -9 62 -19 70 -22 8 -3 -9 -11 -39 -19 -221 -58 -368 -278 -332 -496
27 -166 137 -298 296 -357 79 -30 207 -31 287 -3 202 71 334 285 300 488 -30
180 -159 322 -335 368 -54 15 -53 16 26 37 27 6 74 29 105 49 98 63 155 140
193 260 9 30 19 48 22 40 36 -126 61 -173 132 -244 135 -135 354 -163 527 -69
58 31 147 123 177 181 124 244 5 545 -250 627 -30 10 -61 20 -69 22 -8 3 10
13 41 22 161 51 274 164 313 316 41 155 -2 313 -114 426 -60 61 -113 92 -199
119 l-54 17 71 22 c260 79 385 381 261 629 -33 67 -123 158 -187 191 -97 49
-218 63 -321 35z m-2936 -2469 c61 -89 168 -163 258 -180 51 -10 54 -21 9 -29
-93 -14 -220 -105 -280 -201 -14 -22 -35 -71 -47 -110 l-22 -70 -7 40 c-29
153 -168 297 -327 339 -30 8 -47 16 -39 19 8 3 40 13 70 22 137 42 257 169
291 307 l12 52 22 -67 c11 -36 39 -92 60 -122z m-13 -875 c54 -92 165 -174
273 -201 l48 -12 -64 -21 c-87 -28 -146 -65 -201 -124 -52 -55 -91 -126 -109
-197 l-12 -48 -17 55 c-50 161 -171 280 -325 319 l-48 12 54 17 c82 25 137 57
196 113 56 53 117 159 129 225 l7 36 21 -64 c12 -36 33 -85 48 -110z m-1837
-777 c25 -84 51 -130 112 -194 173 -182 463 -182 636 0 59 62 88 111 107 181
7 25 14 52 17 60 3 8 11 -9 19 -37 43 -164 163 -285 324 -326 59 -15 58 -19
-17 -37 -150 -35 -283 -186 -314 -355 -41 -221 111 -448 341 -506 l45 -11 -54
-14 c-221 -57 -371 -283 -334 -500 31 -178 163 -323 334 -368 l54 -14 -45 -11
c-164 -41 -308 -185 -335 -334 -9 -45 -17 -39 -34 23 -31 109 -108 208 -204
265 -101 58 -271 71 -384 27 -117 -44 -221 -153 -257 -267 -10 -33 -21 -67
-24 -75 -2 -8 -10 5 -17 30 -43 160 -167 286 -319 326 -115 31 -262 8 -358
-56 -91 -61 -153 -145 -189 -260 l-17 -55 -17 64 c-42 149 -157 262 -310 307
l-60 17 46 12 c127 33 237 123 296 243 37 75 38 78 38 192 0 114 -1 117 -38
192 -59 120 -169 210 -296 243 l-46 12 60 17 c153 45 268 158 310 307 l17 64
17 -55 c50 -158 153 -265 299 -310 165 -51 340 -5 456 121 130 141 159 321 77
494 -61 132 -149 199 -331 253 -8 2 9 10 39 18 81 21 167 72 216 126 50 56
103 155 111 210 4 21 8 38 10 38 1 0 10 -26 19 -57z m1837 -119 c61 -96 186
-185 280 -200 48 -8 49 -20 1 -28 -141 -23 -275 -146 -327 -300 l-22 -67 -17
58 c-19 69 -79 165 -131 211 -48 42 -143 90 -195 98 -51 8 -52 20 -3 28 59 9
162 65 213 116 59 59 105 139 121 209 l12 54 21 -69 c12 -38 33 -87 47 -110z
m-1837 -2561 c11 -61 60 -145 116 -202 138 -137 346 -169 521 -80 101 51 209
191 224 291 8 48 20 49 29 1 10 -52 59 -147 103 -195 51 -57 141 -114 205
-128 75 -18 76 -22 17 -37 -174 -44 -302 -185 -333 -368 -37 -216 116 -442
340 -499 l48 -13 -40 -7 c-151 -28 -297 -169 -339 -327 -8 -30 -16 -47 -19
-39 -3 8 -13 40 -22 70 -35 114 -115 204 -234 263 -63 31 -70 32 -186 32 -115
0 -123 -1 -185 -32 -119 -59 -212 -163 -239 -270 -21 -80 -23 -80 -40 -18 -30
106 -91 190 -187 256 -46 31 -138 69 -171 69 -10 1 14 11 53 24 215 70 351
281 316 492 -30 180 -158 322 -333 368 -30 8 -47 16 -39 18 135 40 195 73 260
144 43 47 96 147 106 201 8 41 20 35 29 -14z m1851 -141 c62 -89 171 -163 267
-178 48 -8 47 -20 -1 -28 -59 -9 -157 -63 -209 -114 -64 -64 -98 -121 -119
-199 l-18 -65 -16 59 c-21 77 -61 145 -119 203 -51 51 -154 107 -213 116 -49
8 -48 20 3 28 52 8 147 56 195 98 52 46 112 142 131 211 l17 58 22 -67 c13
-37 40 -92 60 -122z"/>
<path d="M18463 29685 c-79 -22 -131 -51 -195 -113 -159 -151 -181 -394 -54
-579 48 -70 143 -138 228 -164 l71 -22 -54 -17 c-86 -27 -139 -58 -199 -119
-178 -179 -172 -470 14 -638 57 -51 107 -79 186 -104 30 -9 48 -19 40 -22 -8
-3 -39 -13 -69 -22 -214 -66 -344 -306 -286 -528 22 -83 50 -133 113 -199 58
-62 149 -114 214 -124 48 -8 49 -20 2 -29 -141 -26 -286 -163 -324 -305 -7
-25 -14 -52 -17 -60 -3 -8 -11 9 -19 39 -46 176 -186 303 -369 334 -218 37
-441 -115 -499 -340 l-13 -48 -7 40 c-41 218 -282 385 -501 348 -183 -31 -323
-158 -369 -334 -8 -30 -16 -47 -19 -39 -3 8 -10 35 -17 60 -55 205 -286 350
-497 311 -97 -18 -182 -63 -248 -132 -54 -57 -115 -164 -115 -204 0 -42 -17
-47 -23 -8 -10 62 -67 164 -122 219 -57 57 -127 97 -208 118 -28 8 -45 16 -37
18 182 54 269 121 332 254 80 169 49 358 -80 496 -172 184 -472 184 -644 0
-95 -101 -142 -247 -120 -372 30 -169 148 -308 302 -355 30 -9 62 -19 70 -22
8 -3 -9 -11 -39 -19 -77 -20 -148 -61 -207 -119 -54 -54 -111 -156 -121 -218
-6 -39 -23 -34 -23 8 0 40 -61 147 -115 204 -170 179 -441 185 -624 15 -146
-135 -182 -343 -90 -526 16 -31 43 -73 60 -92 45 -52 145 -115 212 -133 l59
-17 -66 -21 c-152 -49 -279 -187 -302 -327 -8 -49 -20 -48 -28 0 -17 111 -126
247 -245 305 -63 31 -71 32 -186 32 -114 0 -123 -2 -188 -32 -93 -44 -169
-119 -215 -212 -37 -74 -37 -77 -37 -195 0 -116 1 -124 32 -187 58 -119 194
-228 305 -245 48 -8 49 -20 1 -28 -53 -8 -139 -50 -189 -91 -57 -47 -121 -146
-141 -218 l-17 -59 -21 66 c-24 73 -80 160 -132 206 -73 65 -198 110 -301 110
-67 0 -172 -31 -231 -69 -95 -61 -178 -178 -196 -275 -9 -47 -21 -46 -29 2
-22 141 -186 305 -328 328 -47 8 -49 20 -4 27 97 16 237 120 289 214 124 230
35 509 -200 624 -65 33 -72 34 -188 34 -116 0 -123 -1 -187 -33 -233 -115
-325 -383 -208 -611 51 -101 173 -198 278 -223 29 -6 52 -15 52 -18 0 -4 -17
-10 -37 -14 -150 -24 -300 -176 -334 -337 -15 -70 -6 -191 19 -256 42 -110
144 -213 254 -255 115 -44 284 -32 385 28 99 58 193 187 209 287 8 48 20 47
28 -2 15 -96 119 -232 218 -286 184 -100 413 -61 549 93 48 55 83 121 100 188
l13 49 16 -55 c48 -158 160 -272 312 -315 l63 -18 -47 -12 c-150 -40 -281
-163 -322 -304 -20 -70 -20 -192 0 -262 41 -141 172 -264 322 -304 l47 -12
-63 -18 c-153 -43 -275 -169 -313 -321 l-13 -49 -16 55 c-47 155 -152 265
-298 310 -257 80 -525 -84 -573 -350 -54 -306 226 -574 533 -509 65 14 155 58
202 100 52 45 115 145 133 212 l17 59 21 -66 c49 -152 187 -279 328 -302 48
-8 47 -20 -1 -28 -111 -17 -247 -126 -305 -245 -31 -63 -32 -71 -32 -187 0
-118 0 -121 37 -195 46 -93 122 -168 215 -212 65 -30 74 -32 188 -32 115 0
123 1 186 32 176 87 283 285 252 468 -15 87 -62 184 -118 244 -51 55 -160 117
-223 127 -49 8 -47 19 6 27 140 23 300 183 327 330 9 48 21 47 29 -1 15 -100
123 -240 224 -291 253 -129 567 7 637 275 39 149 2 307 -98 421 -43 49 -135
107 -194 122 -79 21 -81 23 -33 36 203 55 340 230 340 435 0 220 -158 405
-378 441 -208 34 -426 -100 -487 -301 -9 -30 -19 -62 -22 -70 -3 -8 -11 9 -19
37 -21 81 -61 151 -118 208 -55 55 -157 112 -219 122 -39 6 -34 23 8 23 40 0
147 61 204 115 179 171 186 440 16 623 -57 62 -122 103 -195 122 -25 7 -52 14
-60 17 -8 3 9 11 39 19 79 21 165 70 215 124 51 55 103 151 112 209 8 49 19
46 27 -7 11 -67 64 -157 126 -214 181 -168 437 -168 611 -2 61 58 130 174 130
218 0 43 17 49 23 9 10 -63 67 -164 124 -221 55 -55 151 -108 215 -118 45 -8
42 -19 -8 -29 -210 -39 -371 -278 -335 -497 36 -220 221 -378 441 -378 205 0
383 139 435 340 l11 45 22 -70 c56 -185 230 -315 421 -315 80 0 171 22 228 56
99 58 193 187 209 287 8 48 20 47 28 -2 22 -140 177 -293 336 -332 l45 -11
-54 -14 c-221 -57 -371 -282 -334 -499 34 -196 182 -345 377 -377 206 -34 431
108 490 311 20 70 20 192 0 262 -41 141 -173 265 -322 303 l-47 12 70 22 c127
38 220 120 279 242 29 62 31 71 31 185 0 116 -1 123 -33 188 -117 236 -402
325 -628 196 -97 -55 -190 -181 -209 -281 -9 -49 -21 -48 -29 0 -15 100 -123
240 -224 291 -171 87 -385 56 -517 -75 -71 -71 -96 -118 -132 -244 -3 -8 -13
10 -22 40 -25 77 -52 128 -100 181 -63 72 -124 106 -261 147 -8 2 9 10 37 18
176 46 305 188 335 368 35 209 -103 424 -315 491 l-69 22 38 8 c72 13 147 57
215 124 67 68 102 127 123 209 l12 47 22 -70 c96 -316 478 -421 728 -201 57
50 119 157 130 224 8 52 20 54 28 4 10 -65 66 -163 125 -220 171 -165 441
-167 615 -2 59 56 108 138 127 214 l12 49 21 -64 c29 -87 65 -146 125 -202
173 -162 445 -159 614 7 58 57 113 155 123 218 8 45 19 42 29 -9 9 -49 57
-144 96 -187 45 -52 145 -115 212 -133 l59 -17 -66 -21 c-116 -38 -211 -116
-263 -218 -71 -140 -70 -294 4 -430 52 -94 186 -193 287 -212 47 -9 46 -21 -2
-29 -100 -15 -240 -123 -291 -224 -125 -244 -5 -545 250 -627 30 -10 61 -20
69 -22 8 -3 -10 -13 -40 -22 -87 -28 -140 -59 -200 -120 -173 -173 -173 -449
0 -622 60 -61 113 -92 200 -120 30 -9 48 -19 40 -22 -126 -36 -173 -61 -244
-132 -131 -132 -162 -346 -75 -517 51 -101 191 -209 291 -224 48 -8 49 -20 2
-29 -141 -26 -286 -163 -324 -305 -7 -25 -14 -52 -17 -60 -3 -8 -11 9 -19 39
-46 176 -186 303 -369 334 -218 37 -441 -114 -499 -340 l-13 -48 -7 40 c-32
168 -190 317 -370 348 -134 23 -296 -32 -390 -133 -51 -55 -103 -151 -112
-209 -8 -49 -19 -46 -27 7 -23 140 -183 300 -329 327 -49 9 -48 21 0 29 100
15 240 123 291 224 88 173 56 386 -79 521 -64 64 -119 96 -200 117 -83 21
-203 15 -280 -15 -241 -93 -349 -380 -233 -617 53 -108 187 -213 296 -230 20
-4 37 -10 37 -14 0 -3 -23 -12 -52 -18 -116 -27 -233 -128 -291 -249 -30 -64
-32 -75 -32 -178 0 -92 4 -120 24 -168 47 -119 171 -230 294 -264 l61 -17 -55
-16 c-156 -47 -265 -153 -311 -304 -30 -99 -22 -219 20 -311 57 -121 188 -229
305 -250 20 -4 37 -11 37 -15 0 -4 -17 -10 -37 -14 -140 -22 -297 -172 -328
-311 -13 -59 -17 -59 -34 -5 -28 87 -59 140 -120 200 -256 256 -689 112 -753
-250 -23 -135 33 -293 140 -391 63 -57 103 -80 187 -105 l60 -17 -61 -17
c-154 -42 -272 -159 -315 -314 l-16 -61 -12 45 c-56 224 -287 382 -501 342
-263 -49 -432 -302 -366 -549 42 -158 146 -266 306 -320 35 -12 58 -24 50 -26
-8 -2 -41 -12 -73 -21 -70 -21 -168 -93 -213 -159 -127 -185 -105 -428 54
-579 66 -63 116 -91 199 -113 150 -39 314 6 422 116 59 60 94 116 111 179 7
25 14 52 17 60 3 8 13 -10 22 -40 28 -87 59 -140 120 -200 57 -57 139 -103
205 -115 50 -10 53 -21 8 -29 -114 -18 -243 -120 -301 -236 -82 -168 -57 -353
66 -490 62 -69 117 -105 204 -133 l73 -24 -37 -7 c-157 -29 -298 -168 -342
-336 l-11 -45 -22 70 c-96 317 -482 422 -730 200 -57 -51 -114 -154 -131 -233
-41 -198 50 -392 227 -485 37 -19 84 -38 105 -42 20 -4 37 -11 37 -15 0 -4
-17 -10 -37 -14 -143 -23 -307 -187 -329 -328 -8 -48 -20 -49 -29 0 -19 100
-118 233 -212 285 -230 125 -509 36 -624 -198 -33 -68 -34 -73 -34 -190 0
-114 2 -123 31 -185 17 -36 49 -85 70 -109 49 -56 138 -114 201 -130 79 -21
80 -23 30 -36 -155 -42 -274 -156 -322 -308 l-22 -69 -7 36 c-16 85 -86 196
-160 255 -254 202 -627 74 -710 -242 -15 -54 -16 -53 -37 26 -15 61 -73 150
-129 201 -54 48 -149 93 -230 108 -122 23 -270 -25 -372 -120 -186 -174 -184
-478 4 -647 59 -53 108 -81 188 -106 l55 -17 -64 -17 c-152 -43 -268 -162
-307 -315 -39 -154 6 -318 117 -428 58 -57 150 -109 211 -118 49 -8 49 -20 0
-28 -101 -16 -240 -123 -292 -226 -117 -229 -25 -497 208 -612 64 -32 71 -33
187 -33 116 0 123 1 188 33 120 59 225 189 243 301 8 51 20 52 28 3 15 -96
113 -229 210 -286 115 -68 287 -76 408 -19 120 56 201 150 244 282 l21 64 12
-49 c32 -125 129 -240 251 -298 83 -39 214 -48 306 -21 215 62 353 280 316
496 -62 362 -507 504 -758 243 -57 -60 -107 -151 -120 -219 l-7 -40 -17 61
c-43 158 -187 297 -332 320 -21 4 -38 10 -38 14 0 4 17 10 38 14 66 11 161 63
217 121 173 176 171 451 -4 626 -59 58 -163 119 -206 119 -11 0 -26 4 -33 9
-10 6 -2 11 25 16 94 17 210 99 275 193 17 25 41 75 53 113 l21 67 22 -69 c65
-209 277 -343 488 -310 243 37 417 273 377 508 -32 182 -160 322 -336 367
l-52 13 60 18 c87 25 132 51 196 112 59 56 112 147 124 216 4 20 11 37 15 37
4 0 10 -17 14 -37 10 -65 61 -155 117 -212 95 -94 213 -138 348 -128 93 6 165
33 235 86 106 79 165 190 173 326 14 216 -112 397 -317 456 -61 17 -68 25 -26
32 20 3 65 20 101 38 112 55 204 171 236 299 l11 45 14 -54 c57 -221 283 -371
500 -334 178 31 323 163 368 334 l14 54 11 -45 c41 -164 185 -308 334 -335 45
-9 39 -17 -23 -34 -109 -31 -208 -108 -265 -204 -58 -101 -71 -271 -27 -384
44 -117 153 -221 267 -257 33 -10 67 -21 75 -24 8 -2 -5 -10 -30 -17 -164 -44
-291 -173 -331 -335 l-12 -45 -16 61 c-61 219 -280 362 -498 326 -191 -32
-339 -180 -374 -372 -51 -287 216 -557 505 -511 176 28 320 156 367 326 l16
60 17 -60 c38 -131 122 -231 239 -286 178 -83 369 -49 506 88 171 172 175 437
9 618 -51 56 -157 118 -224 131 -42 8 -37 19 13 29 140 26 296 186 319 328 8
47 20 48 27 2 16 -100 125 -243 222 -293 103 -52 220 -65 330 -36 148 38 261
148 311 303 l21 64 12 -48 c36 -145 164 -280 298 -314 80 -21 80 -23 18 -40
-141 -40 -258 -150 -307 -289 -27 -76 -26 -206 1 -284 53 -153 192 -270 355
-299 218 -38 442 111 500 332 8 30 16 47 19 39 3 -8 13 -40 22 -70 42 -137
153 -244 302 -290 l56 -17 -71 -22 c-260 -79 -387 -386 -261 -633 51 -101 191
-209 291 -224 48 -8 49 -20 1 -29 -105 -19 -241 -123 -292 -223 -127 -249 -2
-553 261 -633 103 -31 229 -25 318 17 233 110 327 385 210 614 -52 103 -191
210 -292 226 -49 8 -49 20 0 28 62 10 156 63 214 121 237 239 130 649 -193
740 l-64 17 55 17 c158 50 265 153 310 299 37 118 20 257 -43 364 -52 89 -168
174 -277 203 -25 7 -38 15 -30 17 8 3 42 14 75 24 120 38 237 156 271 273 9
31 19 63 22 71 2 8 10 -5 17 -30 66 -245 308 -388 550 -325 170 45 297 187
327 368 19 117 -24 259 -108 356 -49 56 -138 114 -201 130 -79 21 -80 22 -24
37 156 41 289 174 322 322 12 51 28 55 29 7 0 -40 61 -147 115 -204 102 -107
253 -158 391 -132 175 32 330 176 359 334 10 52 21 54 29 6 9 -58 61 -154 112
-209 50 -54 136 -103 215 -124 30 -8 47 -16 39 -19 -8 -3 -35 -10 -60 -17 -70
-19 -119 -48 -180 -106 -186 -177 -184 -464 3 -641 115 -109 267 -148 422
-107 148 38 261 148 311 303 l21 64 12 -48 c38 -153 165 -281 316 -320 165
-42 330 6 443 130 161 176 159 428 -4 604 -56 61 -122 102 -194 121 -25 7 -52
14 -60 17 -8 3 9 11 37 19 225 59 373 281 336 500 -31 179 -181 339 -347 370
l-38 7 68 22 c155 49 268 165 308 316 8 30 16 47 19 39 3 -8 13 -40 22 -70 34
-113 124 -212 245 -269 50 -23 67 -26 175 -26 114 0 124 2 185 31 242 115 332
406 197 636 -55 94 -184 188 -279 204 -49 8 -48 20 0 28 61 9 155 62 212 119
93 93 137 212 127 346 -9 136 -70 246 -180 327 -153 113 -374 112 -525 -1 -86
-65 -134 -134 -163 -235 -17 -62 -25 -68 -34 -23 -12 69 -64 159 -126 218 -57
54 -164 115 -204 115 -42 0 -47 17 -8 23 22 4 67 21 102 38 171 86 275 283
244 465 -31 178 -163 323 -334 368 l-54 14 45 11 c230 58 382 285 341 506 -32
177 -159 316 -326 360 -234 60 -465 -69 -541 -303 l-20 -64 -17 59 c-18 67
-81 167 -133 212 -43 39 -138 87 -187 96 -51 10 -54 21 -9 29 61 9 159 64 212
118 99 100 135 197 128 343 -3 82 -8 101 -41 167 -45 92 -121 167 -214 211
-65 30 -74 32 -188 32 -115 0 -123 -1 -186 -32 -120 -59 -227 -192 -245 -305
-8 -48 -20 -49 -28 0 -8 51 -57 151 -95 195 -47 53 -146 116 -214 134 l-59 17
66 21 c331 107 423 521 168 755 -173 159 -431 157 -600 -4 -74 -70 -115 -142
-137 -241 -7 -29 -8 -28 -21 24 -46 173 -189 303 -369 334 -217 37 -442 -113
-499 -334 l-14 -54 -11 45 c-39 159 -192 314 -332 336 -49 8 -50 20 -1 28 150
24 298 175 333 337 15 70 6 191 -19 256 -44 116 -160 227 -270 259 -31 9 -64
19 -72 22 -8 2 5 10 30 17 109 29 225 114 277 203 83 140 83 324 0 464 -52 89
-168 174 -277 203 -25 7 -38 15 -30 17 8 3 41 13 72 22 110 32 226 143 270
259 25 65 34 186 19 256 -35 162 -183 313 -333 337 -49 8 -48 20 0 28 143 22
292 173 333 336 l11 45 14 -54 c57 -221 282 -371 499 -334 180 31 323 161 369
334 13 52 14 53 21 24 22 -99 62 -170 137 -242 51 -49 144 -101 199 -109 49
-8 50 -20 2 -28 -21 -3 -62 -17 -91 -31 -157 -73 -252 -224 -252 -400 0 -205
127 -373 325 -431 l60 -17 -46 -12 c-126 -33 -245 -132 -302 -252 -30 -64 -32
-74 -32 -183 0 -109 2 -119 32 -183 86 -180 288 -291 473 -259 181 32 341 182
366 342 8 50 20 51 28 3 10 -65 63 -161 118 -217 65 -64 161 -113 252 -128
161 -27 337 53 436 197 94 136 94 354 0 490 -63 91 -164 163 -268 189 l-47 12
70 22 c127 38 220 120 279 242 29 62 31 71 31 185 0 116 -1 123 -33 188 -116
236 -402 326 -628 196 -97 -55 -190 -181 -209 -281 -9 -49 -21 -48 -29 0 -22
141 -186 305 -328 328 -21 4 -38 10 -38 14 0 4 17 11 38 15 60 11 138 53 194
105 255 234 163 648 -168 755 l-66 21 59 17 c67 18 167 81 212 133 40 45 77
119 96 191 51 194 -43 402 -222 496 -38 19 -85 38 -105 42 -49 9 -48 21 0 29
100 15 240 123 291 224 90 176 57 384 -83 523 -96 95 -208 136 -346 126 -186
-13 -338 -133 -392 -310 l-21 -70 -17 54 c-25 80 -56 136 -108 191 -140 150
-373 181 -554 75 -89 -52 -174 -168 -203 -277 -7 -25 -15 -38 -17 -30 -3 8
-13 41 -22 72 -34 117 -158 240 -275 274 -31 9 -63 19 -71 22 -8 2 5 10 30 17
109 29 225 114 277 203 106 181 75 414 -75 554 -55 52 -111 83 -192 109 l-55
17 64 17 c192 54 322 228 321 430 -1 122 -42 223 -126 308 -116 117 -279 163
-431 122z m616 -2433 c51 -99 156 -182 269 -214 160 -44 318 -3 433 112 61 60
92 113 119 199 l17 54 22 -70 c23 -78 87 -172 146 -217 46 -35 131 -75 178
-82 20 -4 37 -10 37 -14 0 -3 -23 -12 -52 -18 -115 -27 -234 -128 -290 -248
-25 -53 -32 -83 -36 -154 -12 -220 113 -395 328 -460 l55 -16 -49 -13 c-152
-38 -272 -153 -318 -306 l-22 -70 -12 47 c-37 145 -152 271 -291 319 -78 26
-203 26 -285 -2 -141 -47 -253 -169 -293 -317 -13 -49 -15 -48 -36 31 -34 134
-169 261 -315 298 l-49 13 55 16 c78 24 129 52 186 103 147 133 186 356 94
537 -52 102 -193 210 -295 227 -46 7 -45 19 3 27 60 9 153 59 204 108 70 69
99 121 135 248 3 8 13 -10 22 -40 10 -30 28 -75 40 -98z m-4478 -879 c49 -104
195 -218 303 -239 l40 -7 -73 -24 c-153 -49 -266 -169 -305 -321 l-12 -47 -22
70 c-46 152 -154 257 -312 305 l-55 16 49 13 c152 38 272 153 318 306 l22 70
12 -47 c6 -26 22 -68 35 -95z m6223 -1691 c10 -66 62 -156 125 -216 59 -55
166 -116 206 -116 42 0 47 -17 8 -23 -63 -10 -164 -67 -221 -124 -55 -55 -108
-151 -118 -215 -8 -49 -20 -48 -28 2 -11 67 -57 152 -116 211 -60 61 -113 92
-200 120 -30 9 -48 19 -40 22 71 20 130 43 160 62 94 59 181 182 196 278 8 48
20 47 28 -1z m-7149 -899 c12 -67 57 -146 115 -204 60 -61 113 -92 200 -120
30 -9 48 -19 40 -22 -71 -20 -130 -43 -160 -62 -94 -59 -181 -182 -196 -277
-8 -49 -20 -48 -28 1 -9 59 -61 150 -119 209 -53 54 -170 122 -211 122 -43 0
-49 17 -9 23 63 10 164 67 221 124 55 55 108 151 118 215 8 45 19 42 29 -9z
m2679 -1781 c10 -63 65 -161 123 -218 58 -56 131 -98 210 -118 l48 -13 -40 -7
c-67 -13 -159 -63 -216 -118 -59 -57 -115 -155 -125 -220 -8 -49 -20 -48 -28
3 -8 51 -56 147 -96 192 -46 52 -133 108 -206 132 l-66 21 59 17 c68 18 167
81 214 134 38 44 87 144 95 196 8 48 20 47 28 -1z m948 -132 c38 -66 118 -136
196 -173 64 -30 73 -32 187 -32 115 0 123 1 186 32 119 58 228 194 245 305 8
45 19 42 29 -9 4 -21 23 -69 42 -106 43 -81 110 -144 203 -190 62 -31 70 -32
185 -32 114 0 123 2 185 31 36 17 85 49 109 70 56 49 114 138 130 201 21 79
23 80 36 31 28 -105 99 -206 190 -268 137 -94 353 -95 489 -1 92 64 164 165
190 269 l12 47 22 -70 c46 -152 154 -257 312 -305 l55 -16 -49 -13 c-104 -26
-206 -98 -266 -188 -79 -120 -92 -298 -32 -427 56 -120 175 -221 290 -248 29
-6 52 -15 52 -18 0 -4 -17 -10 -37 -14 -47 -7 -132 -47 -178 -82 -59 -45 -123
-139 -146 -217 l-22 -70 -17 54 c-27 86 -58 139 -119 199 -115 115 -273 156
-433 112 -151 -42 -257 -149 -309 -312 -9 -30 -19 -48 -22 -40 -36 126 -61
173 -132 244 -132 131 -346 162 -517 75 -58 -30 -150 -119 -181 -177 -94 -173
-66 -392 69 -527 71 -71 118 -96 244 -132 8 -3 -10 -13 -41 -22 -161 -51 -274
-164 -313 -316 -41 -155 2 -313 114 -426 60 -61 113 -92 199 -119 l54 -17 -70
-22 c-78 -23 -172 -87 -217 -146 -35 -46 -75 -131 -82 -177 -8 -49 -20 -48
-28 1 -17 107 -124 239 -243 298 -61 30 -85 36 -161 41 -73 4 -103 1 -158 -16
-320 -97 -423 -498 -190 -736 169 -174 439 -180 620 -16 59 55 121 161 132
228 8 49 19 47 27 -6 23 -141 187 -305 330 -328 47 -8 47 -20 1 -29 -101 -19
-235 -118 -287 -212 -137 -253 -14 -560 260 -648 l67 -22 -52 -12 c-138 -34
-265 -154 -307 -291 -9 -30 -19 -62 -22 -70 -3 -8 -11 9 -19 39 -45 172 -194
306 -366 330 -296 41 -543 -205 -507 -504 21 -170 158 -324 330 -369 30 -8 47
-16 39 -19 -8 -3 -40 -13 -70 -22 -137 -42 -257 -169 -291 -307 l-12 -52 -21
65 c-90 278 -394 400 -649 262 -94 -52 -193 -185 -212 -285 -4 -21 -11 -38
-15 -38 -4 0 -10 17 -14 38 -23 142 -187 306 -328 328 -48 8 -49 20 0 29 20 4
67 23 104 42 177 93 269 288 227 485 -14 66 -59 155 -101 204 -46 52 -142 112
-211 131 l-58 17 67 22 c154 52 277 186 300 327 8 48 20 47 28 -1 15 -97 112
-228 210 -286 116 -68 287 -76 409 -19 93 44 169 118 215 212 37 74 37 77 37
195 0 116 -1 124 -32 187 -88 180 -284 283 -474 251 -92 -16 -194 -69 -253
-132 -51 -55 -103 -151 -112 -209 -8 -49 -19 -46 -27 7 -11 67 -64 157 -127
215 -180 167 -436 167 -610 1 -61 -58 -130 -174 -130 -218 0 -43 -17 -49 -23
-9 -10 62 -67 164 -122 219 -57 57 -127 97 -208 118 -28 8 -45 16 -37 19 8 3
40 13 70 22 154 47 272 186 302 355 31 179 -74 380 -245 465 -38 19 -79 35
-91 35 -43 0 -49 17 -9 23 59 10 154 62 209 115 61 58 103 128 125 207 l16 60
17 -60 c26 -87 62 -148 123 -206 99 -94 245 -142 370 -121 170 28 311 147 358
302 9 30 19 62 22 70 3 8 11 -9 19 -37 44 -169 171 -291 342 -329 138 -31 278
8 386 107 102 93 146 192 146 329 0 137 -44 236 -146 329 -58 53 -135 95 -196
106 -46 9 -42 20 9 29 111 18 239 123 296 243 31 65 32 74 32 188 0 115 -1
123 -32 185 -46 93 -109 160 -190 203 -37 19 -85 38 -106 42 -51 10 -54 21 -9
29 111 17 247 126 305 245 31 63 32 71 32 186 0 114 -2 123 -32 188 -57 119
-159 206 -291 247 l-55 17 48 12 c155 39 287 170 326 325 l12 49 21 -64 c12
-35 33 -84 48 -109z m-901 -881 c55 -102 159 -181 282 -213 28 -8 45 -16 37
-19 -8 -3 -35 -10 -60 -17 -142 -38 -279 -183 -305 -322 -4 -21 -11 -38 -15
-38 -4 0 -10 17 -14 38 -23 142 -187 306 -328 328 -48 8 -49 20 0 29 136 25
286 167 321 302 21 79 22 80 37 24 8 -30 28 -80 45 -112z m4468 4 c57 -106
159 -184 284 -217 28 -8 45 -16 37 -19 -8 -3 -35 -10 -60 -17 -70 -19 -119
-48 -181 -107 -59 -56 -112 -147 -124 -215 -4 -21 -11 -38 -15 -38 -4 0 -10
17 -14 38 -23 142 -187 306 -328 328 -48 8 -49 20 -1 29 52 10 147 59 195 103
57 51 114 141 128 205 18 74 22 77 35 22 6 -28 26 -78 44 -112z m-5409 -773
c0 -35 37 -118 76 -171 49 -67 141 -134 212 -155 31 -9 64 -19 72 -22 8 -2 -5
-10 -30 -17 -161 -43 -291 -175 -331 -335 l-12 -45 -16 61 c-44 156 -167 278
-322 317 l-54 14 60 17 c86 25 148 62 204 121 53 56 105 149 116 208 7 37 25
42 25 7z m894 -9 c22 -140 177 -293 336 -332 l45 -11 -54 -14 c-159 -42 -283
-166 -325 -327 -8 -28 -16 -45 -19 -37 -3 8 -13 40 -22 70 -42 139 -150 242
-305 291 -30 9 -48 19 -40 22 71 20 130 43 160 62 94 59 181 182 196 278 8 48
20 47 28 -2z m2720 -100 c138 -271 511 -325 718 -103 52 55 83 111 108 191
l17 54 21 -70 c39 -126 143 -239 265 -285 65 -25 186 -34 256 -19 161 34 313
184 337 334 8 48 20 47 28 -1 16 -103 125 -241 232 -294 109 -55 251 -62 367
-18 118 44 230 169 264 293 l17 61 16 -55 c47 -157 161 -271 312 -314 l63 -18
-60 -16 c-98 -27 -174 -80 -240 -167 -73 -95 -102 -207 -84 -330 13 -95 52
-168 128 -245 68 -67 127 -102 209 -123 l47 -12 -70 -22 c-317 -96 -421 -477
-200 -729 50 -56 158 -118 227 -129 49 -8 49 -20 0 -28 -111 -17 -245 -124
-301 -238 -122 -251 22 -561 292 -629 l48 -12 -72 -24 c-151 -50 -250 -154
-299 -312 l-17 -54 -12 49 c-55 219 -273 364 -499 333 -175 -24 -342 -178
-368 -341 -8 -49 -20 -48 -28 0 -3 21 -22 71 -41 110 -103 206 -367 294 -580
193 -117 -55 -199 -151 -237 -276 l-22 -70 -12 47 c-21 82 -56 141 -123 209
-77 76 -150 115 -245 128 -225 32 -437 -106 -496 -323 l-17 -60 -21 70 c-46
150 -152 255 -311 304 l-54 17 48 12 c276 69 416 384 285 641 -52 103 -191
210 -292 226 -49 8 -49 20 0 28 104 16 244 125 295 230 73 150 58 338 -38 469
-51 68 -144 133 -228 159 l-70 21 54 17 c80 25 136 56 191 108 150 140 181
373 75 554 -52 89 -168 174 -277 203 -25 7 -38 15 -30 17 8 3 40 13 71 22 117
34 241 157 275 274 9 31 19 64 22 72 2 8 10 -5 17 -30 6 -25 24 -69 39 -99z
m-4459 -916 c58 -98 158 -174 270 -206 l60 -16 -45 -12 c-160 -40 -293 -171
-335 -331 l-12 -45 -17 60 c-45 153 -158 268 -307 310 l-64 17 56 17 c164 51
279 170 320 331 l12 45 16 -60 c9 -33 30 -82 46 -110z m7999 -772 c23 -143
187 -307 328 -329 48 -8 49 -20 1 -29 -69 -12 -160 -65 -216 -124 -59 -62 -88
-111 -107 -181 -7 -25 -14 -52 -17 -60 -3 -8 -11 9 -19 39 -43 163 -162 282
-327 325 -28 8 -45 16 -37 18 134 40 195 73 259 143 48 52 98 148 107 204 8
48 19 46 28 -6z m-7149 -910 c23 -77 45 -119 94 -174 52 -60 128 -108 210
-135 l64 -21 -48 -12 c-151 -38 -271 -153 -317 -306 l-22 -70 -12 48 c-28 108
-95 202 -192 269 -44 30 -136 67 -169 69 -10 0 15 11 55 25 41 13 93 38 117
54 91 63 173 180 190 273 4 20 9 37 10 37 2 0 11 -26 20 -57z m2678 -881 c11
-63 63 -156 120 -210 58 -54 151 -106 210 -117 48 -9 47 -21 -1 -29 -141 -22
-305 -186 -328 -328 -8 -48 -20 -48 -29 -2 -26 141 -163 286 -305 324 -25 7
-52 14 -60 17 -8 3 9 11 37 19 130 34 231 114 288 227 19 39 38 87 41 108 8
47 19 43 27 -9z m935 -106 c55 -103 166 -189 283 -220 56 -15 55 -16 -24 -37
-27 -6 -74 -29 -105 -49 -98 -63 -155 -140 -193 -260 -9 -30 -19 -48 -22 -40
-41 138 -88 218 -162 274 -46 35 -131 75 -177 82 -48 8 -49 20 -3 27 19 3 64
20 100 38 112 55 204 171 236 299 l11 45 14 -54 c8 -30 27 -77 42 -105z m2677
9 c51 -105 167 -198 286 -229 30 -8 47 -16 39 -19 -8 -3 -40 -13 -70 -22 -137
-42 -245 -155 -289 -303 l-17 -57 -13 49 c-36 144 -154 270 -291 311 -30 9
-62 19 -70 22 -8 3 9 11 39 19 76 20 144 59 201 117 62 62 94 116 117 197 l17
63 12 -47 c7 -26 24 -71 39 -101z m-3611 -792 c23 -143 178 -302 319 -328 50
-10 55 -21 10 -30 -52 -10 -147 -59 -195 -103 -54 -49 -112 -138 -127 -199
-21 -79 -22 -80 -37 -26 -42 161 -166 286 -325 326 l-54 14 60 18 c87 25 132
51 196 112 59 56 112 147 124 216 4 20 11 37 15 37 4 0 10 -17 14 -37z m-6216
-1007 c55 -102 172 -193 280 -218 l54 -12 -72 -23 c-81 -26 -135 -61 -197
-125 -49 -51 -101 -144 -109 -199 -8 -49 -20 -50 -28 -1 -23 141 -150 278
-299 324 l-70 21 54 17 c153 48 262 151 304 290 9 30 19 62 22 70 3 8 11 -9
19 -39 8 -30 27 -77 42 -105z m-43 -783 c12 -65 74 -170 131 -223 58 -52 135
-94 197 -105 52 -10 54 -21 5 -29 -62 -10 -171 -72 -222 -126 -51 -55 -103
-151 -112 -209 -8 -48 -19 -46 -28 6 -23 143 -188 307 -331 330 -46 7 -45 19
3 27 141 22 305 186 328 329 4 20 10 37 14 37 4 0 11 -17 15 -37z"/>
<path d="M20228 18951 c-188 -60 -308 -227 -308 -427 0 -338 363 -550 662
-387 58 31 147 123 177 181 88 173 56 386 -79 521 -28 28 -69 61 -93 75 -94
56 -250 71 -359 37z"/>
<path d="M14020 28799 c-74 -14 -171 -68 -231 -128 -254 -256 -112 -686 251
-753 124 -23 272 25 375 123 182 172 180 470 -3 641 -108 101 -253 144 -392
117z"/>
<path d="M15800 28796 c-112 -25 -232 -110 -287 -204 -59 -100 -78 -238 -49
-348 57 -214 288 -365 498 -326 362 67 503 497 247 755 -64 64 -151 110 -238
127 -67 12 -101 12 -171 -4z"/>
<path d="M4150 27894 c-119 -32 -222 -120 -282 -242 -32 -64 -33 -71 -33 -187
0 -115 1 -123 33 -188 112 -229 387 -322 614 -206 100 51 204 187 223 292 9
48 21 47 29 -1 15 -100 123 -240 224 -291 148 -75 331 -62 469 33 70 48 138
143 164 228 l22 71 17 -54 c27 -86 58 -139 119 -199 136 -136 348 -168 520
-81 111 57 208 194 233 329 23 124 -24 272 -120 374 -174 187 -475 184 -650
-6 -47 -51 -78 -108 -103 -186 l-17 -55 -17 64 c-77 272 -383 400 -640 268
-101 -51 -205 -188 -221 -289 -4 -21 -10 -38 -14 -38 -4 0 -10 17 -14 38 -16
101 -123 240 -226 292 -98 50 -222 63 -330 34z"/>
<path d="M23808 27891 c-163 -52 -281 -189 -310 -360 -37 -214 106 -433 320
-493 260 -72 516 93 564 362 28 162 -66 363 -210 447 -106 62 -251 80 -364 44z"/>
<path d="M12211 27004 c-30 -8 -80 -28 -112 -45 -155 -83 -252 -281 -222 -455
51 -299 369 -463 637 -330 271 133 333 495 123 707 -115 117 -276 164 -426
123z"/>
<path d="M22041 27004 c-80 -21 -150 -62 -209 -123 -294 -302 -39 -800 383
-750 236 29 418 271 378 504 -24 137 -110 264 -221 323 -112 60 -223 75 -331
46z"/>
<path d="M24714 27001 c-142 -40 -257 -151 -304 -292 -19 -53 -21 -80 -18
-160 6 -125 40 -203 127 -290 247 -247 657 -133 746 208 51 194 -43 402 -222
496 -113 58 -216 71 -329 38z"/>
<path d="M22904 26102 c-320 -114 -409 -519 -163 -746 183 -169 454 -164 622
13 30 31 64 75 75 96 119 234 27 508 -208 619 -58 27 -77 31 -170 33 -82 3
-116 -1 -156 -15z"/>
<path d="M24723 25215 c-109 -30 -181 -79 -248 -167 -56 -75 -85 -164 -85
-263 0 -205 127 -373 325 -431 l60 -17 -45 -12 c-125 -33 -238 -124 -295 -238
-19 -38 -35 -79 -35 -91 -1 -48 -17 -45 -28 5 -38 161 -193 302 -365 331 -289
48 -557 -220 -509 -509 40 -242 273 -414 509 -375 172 29 327 170 365 331 11
50 27 53 28 5 0 -12 16 -53 35 -91 57 -114 170 -205 295 -238 l45 -12 -60 -17
c-247 -72 -381 -323 -305 -569 22 -72 88 -168 145 -211 46 -35 131 -75 178
-82 48 -8 47 -20 -2 -28 -87 -14 -207 -99 -271 -190 -52 -77 -73 -158 -68
-267 4 -81 10 -107 36 -163 42 -89 129 -176 219 -219 65 -31 74 -32 188 -32
116 0 123 1 188 33 122 60 224 189 243 305 4 20 10 37 14 37 4 0 10 -17 14
-37 19 -116 123 -246 245 -306 63 -31 71 -32 187 -32 119 0 121 0 196 38 92
45 167 122 212 217 56 119 47 292 -20 406 -58 98 -189 195 -286 210 -48 8 -49
20 0 28 141 23 278 150 323 298 32 105 25 232 -19 320 -61 123 -151 202 -277
240 l-70 22 47 12 c127 32 236 121 295 242 37 75 38 78 38 192 0 114 -1 117
-38 192 -59 121 -168 210 -295 242 l-47 12 70 22 c126 38 216 117 277 240 44
88 51 215 19 321 -79 259 -387 386 -633 260 -100 -51 -204 -187 -223 -291 -9
-49 -21 -48 -29 0 -15 100 -123 240 -224 291 -97 49 -218 63 -319 36z m571
-533 c14 -91 111 -226 201 -281 33 -19 102 -46 150 -56 29 -7 28 -8 -24 -21
-125 -33 -231 -117 -286 -226 -19 -39 -38 -89 -41 -110 -8 -50 -20 -48 -28 4
-11 65 -73 173 -129 224 -58 52 -107 80 -187 105 -30 9 -48 19 -40 22 71 20
130 43 160 62 91 57 182 186 196 277 4 21 10 38 14 38 4 0 10 -17 14 -38z m0
-890 c3 -21 22 -71 41 -110 55 -109 161 -193 286 -226 52 -13 53 -14 24 -21
-48 -10 -117 -37 -150 -56 -90 -55 -187 -190 -201 -281 -4 -21 -10 -38 -14
-38 -4 0 -10 17 -14 38 -14 91 -106 220 -196 277 -36 23 -103 49 -155 60 -29
7 -28 8 22 21 126 33 229 112 286 222 20 38 39 87 43 110 8 52 20 54 28 4z m1
-899 c27 -147 185 -306 328 -329 52 -9 54 -20 5 -28 -23 -4 -72 -23 -110 -43
-113 -59 -193 -163 -223 -288 -7 -27 -15 -43 -18 -35 -3 8 -13 40 -22 70 -43
141 -181 270 -319 295 -47 9 -46 21 2 29 141 22 305 186 328 329 4 20 10 37
14 37 4 0 11 -17 15 -37z"/>
<path d="M9551 24329 c-202 -40 -361 -232 -361 -439 0 -218 164 -406 385 -442
179 -30 375 75 460 245 19 38 35 79 35 91 1 48 17 45 28 -5 34 -147 163 -277
317 -320 l60 -16 -60 -17 c-86 -25 -148 -62 -204 -121 -171 -181 -169 -449 6
-624 258 -256 688 -116 755 247 40 216 -118 447 -342 503 l-45 11 54 14 c220
57 369 282 333 501 -32 195 -188 348 -384 376 -215 31 -441 -123 -490 -332
-11 -50 -27 -53 -28 -5 0 12 -16 53 -35 91 -89 178 -292 280 -484 242z"/>
<path d="M22018 23421 c-312 -103 -413 -485 -193 -729 51 -57 154 -114 233
-131 252 -53 490 111 534 368 32 189 -76 388 -258 473 -57 27 -80 32 -163 35
-75 2 -109 -1 -153 -16z"/>
<path d="M4161 22534 c-76 -20 -144 -60 -201 -117 -98 -98 -135 -195 -128
-342 3 -82 8 -101 41 -168 45 -91 122 -166 217 -211 61 -29 72 -31 185 -31
115 0 123 1 186 32 225 111 319 374 212 598 -88 188 -313 293 -512 239z"/>
<path d="M22945 22536 c-79 -20 -143 -55 -204 -112 -229 -212 -170 -585 116
-725 65 -33 72 -34 188 -34 114 0 123 2 185 31 235 112 327 385 208 619 -33
63 -122 149 -191 183 -105 52 -198 64 -302 38z"/>
<path d="M10380 21628 c-201 -76 -327 -288 -291 -489 42 -240 276 -411 506
-372 196 34 345 182 377 377 33 202 -98 417 -298 487 -76 27 -219 25 -294 -3z"/>
<path d="M12175 21632 c-205 -76 -333 -285 -298 -487 31 -183 158 -323 334
-369 30 -8 47 -16 39 -19 -8 -3 -35 -10 -60 -17 -206 -55 -350 -285 -311 -497
33 -179 164 -319 341 -364 l45 -11 -54 -14 c-159 -42 -283 -166 -325 -327 -15
-54 -16 -53 -37 26 -27 106 -124 217 -234 269 -132 61 -261 60 -387 -3 -154
-78 -248 -229 -248 -399 0 -203 125 -367 329 -430 l54 -17 -70 -21 c-126 -39
-239 -143 -285 -265 -25 -65 -34 -186 -19 -256 34 -160 186 -314 333 -337 21
-4 38 -10 38 -14 0 -3 -23 -12 -52 -18 -71 -17 -146 -62 -205 -125 -83 -87
-123 -186 -123 -302 0 -201 123 -367 319 -431 l64 -21 -48 -12 c-288 -72 -424
-405 -272 -664 87 -147 286 -239 452 -208 302 55 460 368 325 645 -47 99 -150
183 -268 222 l-64 20 59 17 c67 18 167 81 212 133 39 43 87 138 96 187 10 51
21 54 29 9 15 -97 112 -228 210 -286 116 -68 287 -76 409 -19 279 131 348 498
134 716 -56 57 -156 113 -219 123 -49 8 -49 20 0 28 21 3 71 22 110 41 251
126 313 473 123 687 -56 63 -122 105 -206 130 l-70 22 47 12 c104 26 205 98
269 190 95 139 96 349 1 486 -67 97 -179 176 -274 193 -46 9 -42 20 9 29 110
18 240 124 293 239 114 242 -12 536 -260 612 -30 9 -62 19 -70 22 -8 3 9 11
39 19 173 45 309 198 330 369 23 197 -72 376 -248 463 -70 35 -81 37 -180 40
-83 2 -117 -2 -156 -16z m-247 -2426 c54 -102 172 -193 280 -217 51 -12 55
-28 6 -29 -41 0 -158 -68 -211 -122 -58 -59 -110 -150 -119 -209 -8 -49 -20
-50 -28 -1 -7 46 -47 131 -82 177 -45 59 -139 123 -217 146 l-70 22 54 17
c153 48 262 151 304 290 9 30 19 62 22 70 3 8 11 -9 19 -39 8 -30 27 -77 42
-105z m-43 -783 c12 -65 74 -170 131 -223 58 -52 135 -94 197 -105 52 -10 54
-21 5 -29 -62 -10 -171 -72 -222 -126 -51 -55 -103 -151 -112 -209 -8 -48 -19
-46 -28 6 -23 143 -188 307 -331 330 -46 7 -45 19 3 27 141 22 305 186 328
329 4 20 10 37 14 37 4 0 11 -17 15 -37z"/>
<path d="M13962 21632 c-63 -23 -151 -81 -192 -129 -17 -18 -43 -60 -59 -91
-92 -183 -56 -391 90 -526 183 -170 454 -163 624 15 80 83 116 166 123 279 11
192 -83 351 -258 434 -58 27 -77 31 -170 33 -83 3 -116 -1 -158 -15z"/>
<path d="M4160 20746 c-126 -35 -234 -126 -292 -243 -32 -65 -33 -73 -33 -188
0 -116 1 -123 33 -187 86 -176 244 -267 439 -255 106 6 191 44 272 122 150
143 181 341 85 531 -31 62 -120 152 -182 183 -95 48 -226 63 -322 37z"/>
<path d="M23814 20741 c-162 -46 -286 -188 -316 -360 -22 -128 23 -270 120
-373 173 -185 472 -184 645 1 58 61 103 155 119 241 38 216 -121 448 -343 499
-65 15 -156 12 -225 -8z"/>
<path d="M25613 20745 c-79 -22 -131 -51 -194 -112 -184 -176 -184 -461 1
-637 89 -85 187 -126 305 -126 177 0 327 95 407 258 32 64 33 71 33 187 0 115
-1 123 -33 188 -95 195 -315 297 -519 242z"/>
<path d="M24735 19856 c-133 -33 -242 -121 -302 -244 -37 -75 -38 -78 -38
-191 0 -110 2 -120 32 -184 57 -120 176 -219 302 -252 l46 -12 -60 -17 c-247
-72 -381 -323 -305 -569 22 -72 88 -168 145 -211 46 -35 131 -75 178 -82 48
-8 47 -20 -1 -28 -96 -15 -229 -113 -286 -210 -68 -116 -75 -288 -18 -410 42
-89 129 -176 219 -219 65 -31 74 -32 188 -32 115 0 123 1 186 32 122 60 226
190 245 306 7 40 24 51 24 15 1 -33 41 -126 78 -180 43 -63 138 -132 218 -158
55 -18 82 -22 162 -18 83 3 107 8 165 36 91 42 177 128 219 219 44 92 51 217
19 321 -25 83 -88 172 -157 221 -53 39 -147 80 -181 81 -37 0 -26 17 15 24
141 23 278 150 323 298 32 103 25 229 -17 318 -93 196 -298 296 -511 250 -151
-33 -307 -190 -329 -332 -8 -48 -20 -49 -28 0 -10 64 -61 156 -116 210 -74 73
-129 102 -235 127 -29 7 -28 8 22 21 177 46 304 185 336 367 39 231 -125 462
-362 507 -68 13 -113 12 -176 -4z m560 -1433 c26 -142 171 -293 311 -324 68
-15 75 -25 24 -33 -70 -11 -152 -57 -215 -121 -64 -63 -100 -126 -120 -210 -7
-27 -15 -43 -18 -35 -3 8 -13 40 -22 70 -43 142 -181 270 -317 295 -49 9 -48
21 0 29 141 22 305 186 328 329 4 20 10 37 14 37 4 0 11 -17 15 -37z"/>
<path d="M3935 18956 c-37 -17 -80 -62 -94 -99 -16 -41 -15 -6000 0 -6030 17
-32 60 -77 91 -93 40 -21 5992 -21 6041 0 39 16 82 61 96 99 15 40 15 5984 0
6024 -14 38 -57 83 -96 99 -48 21 -5993 20 -6038 0z m5195 -891 c65 -33 60
139 60 -2220 0 -2359 5 -2187 -60 -2220 -26 -13 -277 -15 -2177 -15 -2129 0
-2148 0 -2181 20 -18 11 -37 32 -42 46 -6 16 -10 801 -10 2170 0 1895 2 2148
15 2174 33 64 -139 59 2218 60 1901 0 2151 -2 2177 -15z"/>
<path d="M5746 17178 c-52 -14 -109 -73 -125 -129 -9 -34 -11 -321 -9 -1229
l3 -1185 24 -38 c13 -21 42 -50 64 -65 l41 -27 1195 -3 1195 -2 53 26 c40 19
60 37 81 72 l27 47 0 1200 0 1200 -25 43 c-15 27 -42 54 -70 70 l-45 27 -1185
2 c-790 1 -1198 -2 -1224 -9z"/>
<path d="M23867 17179 c-122 -18 -251 -109 -316 -223 -153 -266 14 -606 323
-659 182 -31 382 74 465 245 81 167 56 353 -66 488 -109 122 -247 172 -406
149z"/>
<path d="M22945 15386 c-116 -28 -244 -127 -296 -227 -91 -179 -51 -404 95
-536 57 -51 107 -79 185 -103 l54 -17 -70 -21 c-77 -24 -171 -86 -214 -143
-37 -48 -76 -128 -84 -172 -10 -51 -21 -54 -30 -9 -11 60 -55 143 -104 196
-104 110 -203 151 -352 144 -80 -4 -107 -10 -160 -35 -283 -132 -350 -497
-134 -718 56 -58 151 -110 218 -121 20 -4 37 -10 37 -14 0 -4 -17 -10 -37 -14
-67 -11 -162 -63 -218 -121 -217 -222 -149 -586 135 -719 89 -41 216 -48 317
-17 71 22 159 80 207 137 38 46 85 140 92 185 8 46 19 43 29 -8 20 -111 125
-237 242 -295 65 -32 73 -33 188 -33 116 0 123 1 187 33 242 119 330 404 195
634 -55 94 -184 188 -279 204 -21 4 -38 10 -38 14 0 4 17 10 38 14 103 17 240
123 292 226 77 153 63 339 -35 473 -51 68 -144 133 -228 159 l-70 21 55 17
c119 37 229 124 279 221 90 177 53 398 -89 531 -113 105 -266 148 -407 114z
m-331 -1433 c23 -143 187 -307 328 -329 21 -4 38 -10 38 -14 0 -3 -23 -12 -52
-18 -139 -33 -270 -161 -308 -302 -7 -25 -14 -52 -17 -60 -3 -8 -11 9 -19 39
-21 79 -70 165 -124 215 -55 51 -151 103 -209 112 -47 8 -46 19 3 27 56 9 143
56 200 107 59 55 121 161 132 228 8 49 19 47 28 -5z"/>
<path d="M25623 15385 c-226 -61 -373 -281 -336 -500 31 -179 155 -318 325
-365 l62 -17 -49 -12 c-240 -60 -392 -308 -331 -538 42 -159 171 -293 312
-324 68 -15 75 -25 24 -33 -149 -24 -312 -186 -336 -335 -8 -48 -19 -46 -29 6
-27 149 -176 295 -336 332 -140 33 -300 -14 -405 -118 -92 -90 -134 -190 -134
-316 0 -180 93 -326 258 -407 88 -44 215 -51 320 -19 77 23 171 87 216 146 35
46 75 131 82 178 8 48 20 47 28 -1 15 -97 110 -227 207 -284 119 -70 289 -78
412 -20 91 42 177 128 219 219 44 92 51 217 19 321 -25 84 -92 178 -159 224
-54 37 -147 77 -179 78 -37 0 -26 17 15 24 46 7 131 47 177 82 59 45 123 139
146 216 32 103 25 229 -17 318 -58 122 -152 204 -279 242 l-70 22 46 11 c126
33 237 123 296 242 34 68 38 85 41 172 3 79 0 107 -18 160 -74 220 -312 354
-527 296z"/>
<path d="M13963 14480 c-76 -25 -174 -98 -219 -163 -127 -185 -105 -428 54
-579 66 -63 116 -91 199 -113 239 -62 492 94 544 336 15 71 6 192 -20 259 -42
110 -141 209 -251 252 -80 31 -224 35 -307 8z"/>
<path d="M16646 14480 c-206 -73 -334 -283 -298 -489 29 -171 146 -308 302
-356 30 -9 62 -19 70 -22 8 -3 -7 -11 -35 -18 -175 -42 -306 -184 -337 -364
-23 -135 25 -284 124 -381 100 -99 196 -135 343 -128 82 3 101 8 167 41 92 45
167 121 211 214 30 65 32 74 32 188 0 115 -1 123 -32 186 -60 122 -190 226
-305 245 -21 4 -38 10 -38 14 0 4 17 10 38 14 115 19 244 121 304 243 32 65
33 72 33 188 0 114 -1 123 -32 188 -43 91 -130 177 -219 219 -59 27 -80 32
-168 35 -83 3 -111 0 -160 -17z"/>
<path d="M14891 13594 c-176 -47 -303 -188 -333 -368 -31 -184 73 -376 250
-463 75 -37 78 -38 192 -38 114 0 117 1 192 38 177 87 281 279 250 463 -22
135 -110 264 -220 322 -112 60 -223 75 -331 46z"/>
<path d="M2762 6259 c-131 -22 -256 -119 -319 -247 l-38 -76 0 -2045 0 -2046
32 -68 c64 -135 191 -233 333 -256 89 -15 1951 -15 2039 0 141 22 263 115 328
247 l38 76 3 2015 c3 2253 8 2081 -68 2199 -68 106 -183 182 -306 202 -74 12
-1968 11 -2042 -1z m1441 -260 c47 -13 115 -72 134 -116 30 -73 9 -177 -49
-230 -55 -52 -67 -53 -503 -53 -436 0 -448 1 -503 53 -66 61 -83 175 -37 253
25 43 72 79 123 94 41 13 790 12 835 -1z m70 -695 l577 -7 0 -1418 0 -1419
-1070 0 -1070 0 0 1431 0 1432 493 -7 c270 -3 752 -9 1070 -12z m-368 -3058
c224 -110 219 -416 -9 -522 -180 -84 -398 63 -397 266 1 215 214 349 406 256z"/>
<path d="M14536 4558 c-27 -97 -124 -377 -222 -640 -96 -256 -174 -469 -174
-472 0 -3 203 -6 450 -6 248 0 450 1 450 3 0 2 -64 174 -141 383 -78 208 -180
497 -228 642 l-86 262 -49 -172z"/>
</g>
</svg>
